<?xml version="1.0" encoding="utf-8"?>
<!-- Generator: Adobe Illustrator 17.0.0, SVG Export Plug-In . SVG Version: 6.00 Build 0)  -->
<!DOCTYPE svg PUBLIC "-//W3C//DTD SVG 1.1//EN" "http://www.w3.org/Graphics/SVG/1.1/DTD/svg11.dtd" [
	<!ENTITY ns_extend "http://ns.adobe.com/Extensibility/1.0/">
	<!ENTITY ns_ai "http://ns.adobe.com/AdobeIllustrator/10.0/">
	<!ENTITY ns_graphs "http://ns.adobe.com/Graphs/1.0/">
	<!ENTITY ns_vars "http://ns.adobe.com/Variables/1.0/">
	<!ENTITY ns_imrep "http://ns.adobe.com/ImageReplacement/1.0/">
	<!ENTITY ns_sfw "http://ns.adobe.com/SaveForWeb/1.0/">
	<!ENTITY ns_custom "http://ns.adobe.com/GenericCustomNamespace/1.0/">
	<!ENTITY ns_adobe_xpath "http://ns.adobe.com/XPath/1.0/">
]>
<svg version="1.1" id="Capa_1" xmlns:x="&ns_extend;" xmlns:i="&ns_ai;" xmlns:graph="&ns_graphs;"
	 xmlns="http://www.w3.org/2000/svg" xmlns:xlink="http://www.w3.org/1999/xlink" x="0px" y="0px" width="700px" height="166.333px"
	 viewBox="0 0 700 166.333" enable-background="new 0 0 700 166.333" xml:space="preserve">
<metadata>
	<sfw  xmlns="&ns_sfw;">
		<slices></slices>
		<sliceSourceBounds  height="143.444" width="666.195" bottomLeftOrigin="true" x="16.902" y="-154.889"></sliceSourceBounds>
	</sfw>
</metadata>
<g>
	<path fill="#FF6B00" d="M19.06,18.402c26.526-2.443,54.988-3.769,84.602-3.769s58.072,1.326,84.601,3.769
		c1.408,20.622,2.158,42.226,2.158,64.484c0,22.255-0.75,43.862-2.158,64.485c-26.529,2.442-54.987,3.768-84.601,3.768
		s-58.076-1.326-84.602-3.768c-1.409-20.623-2.158-42.229-2.158-64.485C16.902,60.628,17.652,39.024,19.06,18.402z"/>
	<polygon fill="#FFFFFF" points="115.465,73.596 115.463,45.622 128.804,45.622 128.804,27.182 80.237,27.182 80.237,45.622 
		93.582,45.622 93.582,73.596 	"/>
	<rect x="150.394" y="43.109" fill="#FFFFFF" width="30.057" height="77.4"/>
	<rect x="31.603" y="72.374" fill="#FFFFFF" width="46.846" height="21.453"/>
	<path fill="#47545B" d="M218.43,11.445v142.924h-3.301V11.445H218.43z M658.676,105.423c0-7.523,4.502-13.121,12.209-13.121
		c7.705,0,12.213,5.598,12.213,13.121c0,7.707-4.47,13.12-12.213,13.12C663.145,118.543,658.676,113.13,658.676,105.423z
		 M662.529,105.423c0,5.052,2.508,9.921,8.356,9.921c5.853,0,8.359-4.869,8.359-9.921c0-5.161-2.759-9.96-8.359-9.92
		C665.289,95.463,662.529,100.262,662.529,105.423z M252.13,66.34V11.62h14.445v54.72H252.13z M299.773,66.34V24.295h-23.978V11.62
		h62.409v12.675h-23.982V66.34H299.773z M350.431,66.34V11.62h14.448v54.72H350.431z M255.081,154.451v-25.366h7.487
		c7.524,0,13.521,4.651,13.521,12.466c0,8.505-5.161,12.9-13.521,12.9H255.081z M258.715,132.281v18.973h3.817
		c6.253,0,9.704-3.016,9.704-9.558c0-5.922-4.036-9.414-9.266-9.414H258.715z M281.352,154.451v-25.366h14.212v3.196H284.99v7.415
		h9.631v3.199h-9.631v8.358h10.574v3.197H281.352z M310.749,154.451v-25.366h3.634v25.366H310.749z M320.45,154.451v-25.366h4.942
		l11.19,20.424l0.075-20.424h3.64v25.366h-4.652l-11.489-20.862l-0.072,20.862H320.45z M346.147,154.451v-25.366h13.49v3.196h-9.855
		v7.415h9.416v3.199h-9.416v11.556H346.147z M366.724,141.767c0,5.051,2.512,9.922,8.363,9.922c5.848,0,8.356-4.871,8.356-9.922
		c0-5.162-2.76-9.958-8.356-9.92C369.489,131.809,366.724,136.606,366.724,141.767z M362.869,141.767
		c0-7.523,4.512-13.12,12.219-13.12c7.702,0,12.21,5.597,12.21,13.12c0,7.704-4.47,13.121-12.21,13.121
		C367.341,154.889,362.869,149.471,362.869,141.767z M391.875,154.451v-25.366h6.216c5.016,0,9.846,0.798,9.846,6.868
		c0,3.089-2.286,5.271-5.231,5.779c1.127,0.51,1.672,1.056,2.471,2.616l4.797,10.103h-4.143l-3.89-8.795
		c-1.124-2.471-2.324-2.471-4.251-2.471h-2.18v11.266H391.875z M395.508,132.281v7.705h3.087c3.457,0,5.494-1.525,5.494-3.961
		c0-2.289-1.747-3.744-5.092-3.744H395.508z M413.965,154.451v-25.366h6l7.956,21.078l7.814-21.078h5.997v25.366h-3.634v-21.95
		l-8.466,21.95h-3.563l-8.393-21.95l-0.072,21.95H413.965z M455.362,127.23l3.237-5.236h3.96l-4.758,5.236H455.362z
		 M445.077,154.451l10.831-25.366h3.816l10.723,25.366h-3.96l-2.584-6.394h-12.428l-2.584,6.394H445.077z M462.74,145.076
		l-5.053-12.576l-5.052,12.576H462.74z M478.801,154.451v-22.17h-7.888v-3.196h19.407v3.196h-7.887v22.17H478.801z M493.595,154.451
		v-25.366h3.628v25.366H493.595z M521.137,129.738l-0.294,3.526c-1.597-0.944-3.377-1.417-5.231-1.417
		c-5.853,0-9.743,4.214-9.743,9.92c0,5.961,4.292,9.922,9.56,9.922c1.813,0,4.25-0.471,5.526-1.238l0.215,3.526
		c-1.924,0.801-4.288,0.91-5.778,0.91c-8.034,0-13.377-5.16-13.377-13.231c0-7.814,5.676-13.01,13.414-13.01
		C517.391,128.648,519.315,128.937,521.137,129.738z M522.365,154.451l10.831-25.366h3.817l10.722,25.366h-3.961l-2.583-6.394
		h-12.428l-2.582,6.394H522.365z M540.029,145.076l-5.053-12.576l-5.05,12.576H540.029z M255.298,118.108v-25.37h3.636v25.37
		H255.298z M265,118.108v-25.37h4.941l11.191,20.429l0.075-20.429h3.634v25.37h-4.651l-11.486-20.862l-0.07,20.862H265z
		 M302.939,93.214l-0.509,3.342c-1.853-0.726-2.873-1.053-4.759-1.053c-2.037,0-4.437,0.723-4.437,3.377
		c0,4.871,10.901,3.745,10.901,12.105c0,5.414-4.175,7.558-9.264,7.558c-1.782,0-3.523-0.51-5.196-1.054l0.361-3.379
		c1.236,0.509,3.418,1.233,5.272,1.233c2.073,0,4.974-1.164,4.974-4.141c0-5.67-10.902-4.107-10.902-11.993
		c0-4.507,3.564-6.908,8.142-6.908C299.194,92.301,301.195,92.593,302.939,93.214z M313.772,118.108v-22.17h-7.885v-3.2h19.407v3.2
		h-7.888v22.17H313.772z M328.559,118.108v-25.37h3.634v25.37H328.559z M343.35,118.108v-22.17h-7.889v-3.2h19.415v3.2h-7.891v22.17
		H343.35z M377.882,92.738v14.866c0,7.123-3.597,10.939-9.848,10.939c-6.252,0-9.849-3.816-9.849-10.939V92.738h3.634v14.395
		c0,4.869,1.522,8.211,6.215,8.211c4.686,0,6.215-3.342,6.215-8.211V92.738H377.882z M389.077,118.108v-22.17h-7.888v-3.2h19.407
		v3.2h-7.887v22.17H389.077z M406.406,105.423c0,5.052,2.512,9.921,8.358,9.921c5.852,0,8.361-4.869,8.361-9.921
		c0-5.161-2.761-9.96-8.361-9.92C409.17,95.463,406.406,100.262,406.406,105.423z M402.553,105.423
		c0-7.523,4.51-13.121,12.212-13.121c7.706,0,12.214,5.598,12.214,13.121c0,7.707-4.472,13.12-12.214,13.12
		C407.025,118.543,402.553,113.13,402.553,105.423z M446.56,118.108v-22.17h-7.888v-3.2h19.408v3.2h-7.884v22.17H446.56z
		 M461.531,118.108v-25.37h14.209v3.2h-10.575v7.414h9.633v3.197h-9.633v8.361h10.575v3.198H461.531z M498.998,93.394l-0.29,3.524
		c-1.6-0.943-3.381-1.415-5.235-1.415c-5.85,0-9.743,4.215-9.743,9.92c0,5.96,4.29,9.921,9.561,9.921
		c1.816,0,4.249-0.471,5.525-1.233l0.215,3.524c-1.923,0.801-4.284,0.909-5.773,0.909c-8.039,0-13.381-5.161-13.381-13.227
		c0-7.814,5.671-13.015,13.414-13.015C495.252,92.301,497.176,92.593,498.998,93.394z M502.991,118.108v-25.37h4.942l11.195,20.429
		l0.076-20.429h3.628v25.37h-4.651L506.7,97.245l-0.075,20.862H502.991z M531.45,105.423c0,5.052,2.503,9.921,8.356,9.921
		c5.852,0,8.361-4.869,8.361-9.921c0-5.161-2.761-9.96-8.361-9.92C534.21,95.463,531.45,100.262,531.45,105.423z M527.597,105.423
		c0-7.523,4.503-13.121,12.208-13.121c7.707,0,12.214,5.598,12.214,13.121c0,7.707-4.47,13.12-12.214,13.12
		C532.067,118.543,527.597,113.13,527.597,105.423z M556.773,118.108v-25.37h3.638v22.172h10.611v3.198H556.773z M583.129,90.884
		l3.237-5.231h3.961l-4.759,5.231H583.129z M577.17,105.423c0,5.052,2.503,9.921,8.355,9.921c5.853,0,8.361-4.869,8.361-9.921
		c0-5.161-2.76-9.96-8.361-9.92C579.93,95.463,577.17,100.262,577.17,105.423z M573.316,105.423c0-7.523,4.503-13.121,12.208-13.121
		c7.706,0,12.214,5.598,12.214,13.121c0,7.707-4.469,13.12-12.214,13.12C577.786,118.543,573.316,113.13,573.316,105.423z
		 M622.087,93.576l-0.29,3.669c-1.779-1.163-3.709-1.742-6.978-1.742c-5.852,0-9.743,4.25-9.743,9.92
		c0,5.96,4.293,9.921,9.562,9.921c2.507,0,3.162-0.253,4.067-0.434v-7.704h-5.343v-2.983h8.977v13.195
		c-1.378,0.472-3.779,1.126-7.739,1.126c-8.033,0-13.377-5.161-13.377-13.227c0-7.814,5.67-13.015,13.414-13.015
		C618.345,92.301,619.98,92.848,622.087,93.576z M628.411,118.108v-25.37h3.634v25.37H628.411z M655.953,93.394l-0.289,3.524
		c-1.602-0.943-3.382-1.415-5.235-1.415c-5.848,0-9.744,4.215-9.744,9.92c0,5.96,4.292,9.921,9.561,9.921
		c1.817,0,4.249-0.471,5.526-1.233l0.214,3.524c-1.924,0.801-4.283,0.909-5.773,0.909c-8.038,0-13.381-5.161-13.381-13.227
		c0-7.814,5.676-13.015,13.414-13.015C652.207,92.301,654.131,92.593,655.953,93.394z"/>
</g>
</svg>
